<svg xmlns="http://www.w3.org/2000/svg" xmlns:xlink="http://www.w3.org/1999/xlink" viewBox="0,0,256,256" width="24px" height="24px" fill-rule="nonzero"><g fill="#d9caca" fill-rule="nonzero" stroke="none" stroke-width="1" stroke-linecap="butt" stroke-linejoin="miter" stroke-miterlimit="10" stroke-dasharray="" stroke-dashoffset="0" font-family="none" font-weight="none" font-size="none" text-anchor="none" style="mix-blend-mode: normal"><g transform="scale(10.66667,10.66667)"><path d="M6,3c-1.65109,0 -3,1.34891 -3,3v12c0,1.65109 1.34891,3 3,3h12c1.65109,0 3,-1.34891 3,-3v-12c0,-1.65109 -1.34891,-3 -3,-3zM6,4h12c1.11091,0 2,0.88909 2,2v12c0,1.11091 -0.88909,2 -2,2h-12c-1.11091,0 -2,-0.88909 -2,-2v-12c0,-1.11091 0.88909,-2 2,-2zM8.18555,6.78516c-0.741,0 -1.18555,0.4442 -1.18555,1.0332c0,0.593 0.44438,1.03906 1.10938,1.03906c0.741,0 1.18164,-0.44606 1.18164,-1.03906c0,-0.588 -0.44047,-1.0332 -1.10547,-1.0332zM7.0625,9.96289v6.03711h2.17383v-6.03711zM11.0332,9.96289v6.03711h2.17383v-3.30273c0,-0.979 0.70111,-1.12305 0.91211,-1.12305c0.211,0 0.77344,0.21105 0.77344,1.12305v3.30273h2.10742v-3.30273c0,-1.891 -0.84548,-2.73438 -1.89648,-2.73438c-1.051,0 -1.61349,0.34975 -1.89649,0.84375v-0.84375z"></path></g></g></svg>